<svg xmlns="http://www.w3.org/2000/svg" width="40" height="40" viewBox="0 0 40 40" fill="none">
  <path d="M8 22c0-2 1.5-4 3.5-4.5l3-1 2.5 2.5-1.5 3.5c-.5 1.2-1.8 2-3 2H9.5c-.8 0-1.5-.7-1.5-1.5V22z" fill="#F5C542"/>
  <path d="M14 14.5l4-3.5 3 1.5 1 4-2.5 3-3.5 1.5-2.5-1-1-3.5 1.5-2.5z" fill="#E8A82E"/>
  <path d="M22 12l5-1.5 4 2 1.5 4.5-2 4-4 2.5-4.5.5-3.5-2.5-2.5L22 12z" fill="#F5C542"/>
  <path d="M30 18.5l2.5 3 1 4.5-2 3.5-3.5 2-3-1.5-1-4.5 2.5-3 3.5-1 1.5-3.5 2-2.5z" fill="#E8A82E"/>
  <path d="M12 26.5h16c1.5 0 2.5 1 2.5 2.5S29.5 31.5 28 31.5H12c-1.2 0-2.2-1-2.2-2.2v-.6c0-1.2 1-2.2 2.2-2.2z" fill="#D4922A"/>
</svg>
